<svg xmlns="http://www.w3.org/2000/svg" xmlns:xlink="http://www.w3.org/1999/xlink" viewBox="0 0 405.2 546.62"><defs><style>.cls-1{fill:url(#linear-gradient);}</style><linearGradient id="linear-gradient" x1="202.6" y1="454.3" x2="202.6" y2="80.42" gradientUnits="userSpaceOnUse"><stop offset="0" stop-color="#ff6e21"/><stop offset="1" stop-color="#ff8545"/></linearGradient></defs><title>Artboard 5</title><g id="Layer_6" data-name="Layer 6"><path class="cls-1" d="M283.37,147a11.83,11.83,0,0,1,11.82-11.08h17.54a6.86,6.86,0,0,0,0-13.71H283.34v-11c0-.26,0-.51,0-.76a11.84,11.84,0,0,1,11.82-11.08h17.54a6.86,6.86,0,0,0,0-13.71H167.66a6.86,6.86,0,1,0,0,13.71h17.51A11.84,11.84,0,0,1,197,111.16v11H167.66a6.86,6.86,0,1,0,0,13.71h17.51A11.84,11.84,0,0,1,197,147.73v11H167.66a6.86,6.86,0,1,0,0,13.71h17.51A11.84,11.84,0,0,1,197,184.3v11H167.66a6.86,6.86,0,0,0-6.86,6.86h0a6.86,6.86,0,0,0,6.86,6.85h17.51A11.81,11.81,0,0,1,197,220.26V361.73a12.77,12.77,0,0,1-12.14,12.91A12.53,12.53,0,0,1,172,362.45c0-.1,0-.21,0-.32s0-.22,0-.32v-37.6a39.94,39.94,0,0,0-27.4,36.63v2.58a39.93,39.93,0,0,0,79.82-.26V225.74a15.77,15.77,0,0,1,31.54,0V362.13a69.43,69.43,0,0,1-31.54,58A72.16,72.16,0,0,1,197,430.94a73.67,73.67,0,0,1-25,0,72,72,0,0,1-27.4-10.83,69.05,69.05,0,0,1,0-116,70.75,70.75,0,0,1,8.37-4.74l.07,0c.36-.18.73-.36,1.1-.52l.17-.08A31.88,31.88,0,0,0,172,270.22a31.36,31.36,0,0,0-.59-6.09A98.88,98.88,0,0,0,172,460.22a100.71,100.71,0,0,0,25,0,98.9,98.9,0,0,0,86.35-98.09V220.88A11.86,11.86,0,0,1,295.19,209h17.54a6.85,6.85,0,0,0,6.85-6.85h0a6.86,6.86,0,0,0-6.85-6.86H283.34v-11c0-.26,0-.51,0-.76a11.83,11.83,0,0,1,11.82-11.08h17.54a6.86,6.86,0,0,0,0-13.71H283.34v-11C283.34,147.47,283.35,147.22,283.37,147Zm-27.74,32.42A15.62,15.62,0,0,1,240,195H224.39V179.39a15.62,15.62,0,0,1,31.24,0Z"/></g></svg>